<?xml version="1.0" encoding="utf-8"?>
<!-- Generator: Adobe Illustrator 16.0.0, SVG Export Plug-In . SVG Version: 6.00 Build 0)  -->
<!DOCTYPE svg PUBLIC "-//W3C//DTD SVG 1.1//EN" "http://www.w3.org/Graphics/SVG/1.1/DTD/svg11.dtd">
<svg version="1.1" id="Layer_1" xmlns="http://www.w3.org/2000/svg" xmlns:xlink="http://www.w3.org/1999/xlink" x="0px" y="0px"
	 width="114.476px" height="114.476px" viewBox="0 0 114.476 114.476" enable-background="new 0 0 114.476 114.476"
	 xml:space="preserve">
<g>
	<defs>
		<rect id="SVGID_1_" width="114.476" height="114.476"/>
	</defs>
	<clipPath id="SVGID_2_">
		<use xlink:href="#SVGID_1_"  overflow="visible"/>
	</clipPath>
	<path clip-path="url(#SVGID_2_)" fill="#E6E7E8" d="M57.238,0C25.677,0,0,25.677,0,57.238c0,3.56,0.338,7.105,0.994,10.588
		c0.21,1.117,0.453,2.229,0.73,3.33c0.094,0.377,0.186,0.755,0.288,1.131c0.066,0.24,0.137,0.479,0.208,0.717l0.088,0.298
		c0.314,1.074,0.611,2.006,0.908,2.852c0.044,0.125,0.091,0.25,0.137,0.374l0.089,0.239c1.429,3.925,3.283,7.685,5.511,11.177
		c0.173,0.271,0.352,0.537,0.529,0.806c0.082,0.123,0.162,0.248,0.245,0.37c0.317,0.471,0.639,0.938,0.969,1.398
		c0.177,0.247,0.36,0.491,0.542,0.735l0.071,0.095l0.041,0.054c10.784,14.449,27.938,23.074,45.888,23.074
		c17.954,0,35.108-8.625,45.892-23.073c0.072-0.097,0.143-0.195,0.214-0.293c0.202-0.271,0.404-0.544,0.602-0.819
		c0.273-0.387,0.542-0.778,0.807-1.174c0.13-0.193,0.255-0.392,0.383-0.587c0.179-0.272,0.36-0.543,0.533-0.818
		c2.166-3.431,3.972-7.112,5.368-10.944l0.072-0.195c0.036-0.098,0.073-0.196,0.108-0.296c0.315-0.89,0.627-1.863,0.952-2.973
		l0.088-0.296c0.058-0.19,0.115-0.38,0.168-0.573c0.117-0.423,0.223-0.85,0.329-1.276c0.276-1.103,0.52-2.213,0.729-3.331
		c0.654-3.482,0.992-7.026,0.992-10.588C114.476,25.677,88.799,0,57.238,0 M5.665,73.427c-0.118-0.069-0.236-0.137-0.353-0.206
		C5.429,73.291,5.547,73.358,5.665,73.427 M4.471,72.7c-0.207-0.132-0.41-0.27-0.613-0.407C4.061,72.43,4.265,72.567,4.471,72.7
		 M2.01,70.937c0.403,0.325,0.817,0.633,1.236,0.936C2.826,71.571,2.413,71.262,2.01,70.937 M57.238,109.596
		c-15.639,0-30.072-6.803-40.066-18.736c1.3-0.737,2.541-1.562,3.697-2.47c5.234,4.114,11.759,6.376,18.41,6.376
		c6.651,0,13.175-2.262,18.41-6.376c5.234,4.114,11.759,6.376,18.409,6.376c6.651,0,13.176-2.262,18.409-6.376
		c0.979,0.767,2.026,1.458,3.104,2.104C87.607,102.653,73.04,109.596,57.238,109.596 M105.633,77.193
		c-1.148,2.775-2.529,5.445-4.102,7.935c-0.263,0.415-0.531,0.825-0.804,1.232c-0.057,0.085-0.116,0.168-0.174,0.252
		c-0.19,0.281-0.384,0.561-0.58,0.837c-1.118-0.646-2.19-1.372-3.192-2.169c-0.335-0.266-0.661-0.541-1.01-0.847
		c-0.067-0.064-0.137-0.123-0.219-0.186c-0.021-0.019-0.044-0.033-0.066-0.047c-0.296-0.2-0.618-0.303-0.959-0.303
		c-0.559,0-0.994,0.29-1.217,0.472c-0.352,0.312-0.709,0.617-1.076,0.91c-4.644,3.691-10.223,5.643-16.137,5.643
		s-11.492-1.951-16.136-5.643c-0.335-0.265-0.661-0.541-0.938-0.78c-0.615-0.637-1.431-0.775-2.168-0.373
		c-0.069,0.014-0.134,0.046-0.188,0.093l-0.197,0.173l0.245,0.28l-0.008,0.005l-0.311-0.22c-0.321,0.281-0.648,0.558-0.981,0.822
		c-4.643,3.691-10.223,5.643-16.136,5.643c-5.914,0-11.494-1.951-16.137-5.643c-0.334-0.265-0.659-0.541-0.977-0.816
		c-0.079-0.079-0.158-0.149-0.246-0.215c-0.021-0.019-0.043-0.033-0.066-0.047c-0.565-0.384-1.259-0.401-1.869-0.047
		c-0.06,0.017-0.115,0.046-0.162,0.088l-0.246,0.216c-0.32,0.28-0.646,0.557-0.981,0.821c-1.208,0.961-2.496,1.806-3.833,2.531
		c-0.203-0.281-0.397-0.568-0.594-0.854c-0.138-0.2-0.281-0.397-0.417-0.6c-0.217-0.323-0.435-0.646-0.645-0.974
		c-1.635-2.557-3.069-5.312-4.261-8.191c-0.015-0.037-0.031-0.073-0.047-0.108c3.678,1.559,7.668,2.386,11.621,2.386
		c6.652,0,13.176-2.263,18.409-6.378c5.234,4.115,11.759,6.378,18.41,6.378s13.177-2.263,18.41-6.378
		c5.232,4.115,11.758,6.378,18.408,6.378c3.954,0,7.944-0.828,11.623-2.387L105.633,77.193z M51.312,63.382
		c-0.8-0.491-1.67-0.917-2.599-1.271c-6.207-2.231-22.882-9.623-25.465-16.915c-0.012-0.037-0.028-0.079-0.041-0.107
		c-0.023-0.056-2.203-5.429-1.574-12.326c1.737,1.914,6.814,6.544,15.25,6.544c1.281,0,2.602-0.11,3.906-0.324
		c0.362-0.043,7.663-0.847,13.09,1.364c-1.868,2.108-2.814,4.747-2.814,7.857L51.312,63.382z M54.931,48.173
		c0-2.326,0.777-4.25,2.312-5.727c1.528,1.472,2.303,3.387,2.303,5.696l-0.447,27.405c-0.616,0.043-1.235,0.077-1.86,0.077
		c-0.625,0-1.244-0.034-1.861-0.077L54.931,48.173z M60.603,40.347c5.327-2.173,12.49-1.431,13.065-1.368
		c1.323,0.218,2.644,0.328,3.927,0.328c8.434,0,13.512-4.63,15.249-6.544c0.63,6.905-1.551,12.267-1.574,12.324l-0.039,0.102
		c-2.581,7.289-19.278,14.695-25.5,16.937c-0.914,0.347-1.773,0.767-2.566,1.253l0.248-15.206
		C63.412,45.081,62.468,42.451,60.603,40.347 M107.89,70.468c-0.121,0.461-0.246,0.921-0.377,1.379
		c-4.038,2.468-8.685,3.777-13.456,3.777c-5.912,0-11.491-1.951-16.135-5.641c-0.334-0.267-0.661-0.542-0.938-0.781
		c-0.618-0.638-1.432-0.774-2.168-0.374c-0.07,0.016-0.136,0.048-0.189,0.095L74.425,69.1l0.251,0.284l-0.006,0.004l-0.313-0.229
		c-0.321,0.283-0.648,0.56-0.982,0.824c-3.105,2.468-6.636,4.138-10.399,4.987l0.108-6.587c1.036-1.134,2.379-2.021,3.989-2.633
		c0.979-0.354,24.027-8.758,27.781-19.212c0.304-0.742,2.929-7.49,1.609-16.019c-0.011-0.066-0.022-0.132-0.041-0.195
		c-0.362-1.386-1.343-2.867-3.01-2.867c-1.194,0-2.233,0.781-3.052,2.266c-0.466,0.586-4.771,5.718-12.766,5.718
		c-1.08,0-2.201-0.095-3.41-0.293c-0.016-0.002-1.642-0.206-4.068-0.206c-5.316,0-9.647,0.921-12.876,2.739
		c-3.23-1.818-7.561-2.739-12.879-2.739c-2.409,0-4.053,0.204-4.062,0.205l-0.085,0.012c-1.126,0.187-2.247,0.282-3.332,0.282
		c-8.042-0.001-12.304-5.13-12.728-5.66c-0.855-1.542-1.894-2.324-3.089-2.324c-1.668,0-2.649,1.481-3.011,2.866
		c-0.017,0.064-0.03,0.13-0.04,0.196c-1.319,8.531,1.305,15.278,1.602,16.002c3.772,10.504,26.785,18.868,27.755,19.216
		c1.627,0.62,2.98,1.513,4.023,2.655l0.107,6.578c-3.763-0.85-7.293-2.52-10.398-4.987c-0.335-0.266-0.661-0.54-0.978-0.817
		c-0.077-0.077-0.158-0.147-0.24-0.211c-0.025-0.021-0.052-0.039-0.081-0.055c-0.496-0.328-1.21-0.354-1.754-0.098
		c-0.08,0.011-0.155,0.044-0.217,0.098l-0.18,0.159c-0.036,0.029-0.067,0.056-0.117,0.102c-0.321,0.282-0.646,0.557-0.981,0.822
		c-4.643,3.69-10.223,5.642-16.136,5.642c-4.771,0-9.418-1.31-13.457-3.778c-0.131-0.458-0.256-0.918-0.376-1.379
		C5.459,66.16,4.88,61.724,4.88,57.238c0-28.87,23.488-52.358,52.358-52.358c28.871,0,52.357,23.488,52.357,52.358
		C109.596,61.723,109.017,66.16,107.89,70.468"/>
</g>
</svg>
